<svg id="visual" viewBox="0 0 960 540" width="960" height="540" xmlns="http://www.w3.org/2000/svg" xmlns:xlink="http://www.w3.org/1999/xlink" version="1.1"><path d="M0 275L16 279.5C32 284 64 293 96 296.8C128 300.7 160 299.3 192 293.3C224 287.3 256 276.7 288 275.3C320 274 352 282 384 298.2C416 314.3 448 338.7 480 345.8C512 353 544 343 576 339.5C608 336 640 339 672 333.5C704 328 736 314 768 318.8C800 323.7 832 347.3 864 349.7C896 352 928 333 944 323.5L960 314L960 541L944 541C928 541 896 541 864 541C832 541 800 541 768 541C736 541 704 541 672 541C640 541 608 541 576 541C544 541 512 541 480 541C448 541 416 541 384 541C352 541 320 541 288 541C256 541 224 541 192 541C160 541 128 541 96 541C64 541 32 541 16 541L0 541Z" fill="#ffffff"></path><path d="M0 358L16 357.7C32 357.3 64 356.7 96 352.5C128 348.3 160 340.7 192 348.8C224 357 256 381 288 391.7C320 402.3 352 399.7 384 397.8C416 396 448 395 480 396.7C512 398.3 544 402.7 576 396.7C608 390.7 640 374.3 672 365C704 355.7 736 353.3 768 361.2C800 369 832 387 864 384.5C896 382 928 359 944 347.5L960 336L960 541L944 541C928 541 896 541 864 541C832 541 800 541 768 541C736 541 704 541 672 541C640 541 608 541 576 541C544 541 512 541 480 541C448 541 416 541 384 541C352 541 320 541 288 541C256 541 224 541 192 541C160 541 128 541 96 541C64 541 32 541 16 541L0 541Z" fill="#d6c8e0"></path><path d="M0 432L16 426.5C32 421 64 410 96 407C128 404 160 409 192 418.2C224 427.3 256 440.7 288 438.7C320 436.7 352 419.3 384 412.7C416 406 448 410 480 406.8C512 403.7 544 393.3 576 398.2C608 403 640 423 672 429C704 435 736 427 768 424.3C800 421.7 832 424.3 864 421.8C896 419.3 928 411.7 944 407.8L960 404L960 541L944 541C928 541 896 541 864 541C832 541 800 541 768 541C736 541 704 541 672 541C640 541 608 541 576 541C544 541 512 541 480 541C448 541 416 541 384 541C352 541 320 541 288 541C256 541 224 541 192 541C160 541 128 541 96 541C64 541 32 541 16 541L0 541Z" fill="#ad93c2"></path><path d="M0 405L16 405.7C32 406.3 64 407.7 96 418.5C128 429.3 160 449.7 192 449.3C224 449 256 428 288 419C320 410 352 413 384 423.2C416 433.3 448 450.7 480 454.3C512 458 544 448 576 443.5C608 439 640 440 672 439.7C704 439.3 736 437.7 768 435C800 432.3 832 428.7 864 434.2C896 439.7 928 454.3 944 461.7L960 469L960 541L944 541C928 541 896 541 864 541C832 541 800 541 768 541C736 541 704 541 672 541C640 541 608 541 576 541C544 541 512 541 480 541C448 541 416 541 384 541C352 541 320 541 288 541C256 541 224 541 192 541C160 541 128 541 96 541C64 541 32 541 16 541L0 541Z" fill="#8460a4"></path><path d="M0 461L16 469.3C32 477.7 64 494.3 96 495.3C128 496.3 160 481.7 192 472.2C224 462.7 256 458.3 288 465.8C320 473.3 352 492.7 384 497.5C416 502.3 448 492.7 480 484.7C512 476.7 544 470.3 576 466.8C608 463.3 640 462.7 672 469.3C704 476 736 490 768 495.5C800 501 832 498 864 492.7C896 487.3 928 479.7 944 475.8L960 472L960 541L944 541C928 541 896 541 864 541C832 541 800 541 768 541C736 541 704 541 672 541C640 541 608 541 576 541C544 541 512 541 480 541C448 541 416 541 384 541C352 541 320 541 288 541C256 541 224 541 192 541C160 541 128 541 96 541C64 541 32 541 16 541L0 541Z" fill="#5a2f86"></path></svg>