<svg id="visual" viewBox="0 0 960 540" width="960" height="540" xmlns="http://www.w3.org/2000/svg" xmlns:xlink="http://www.w3.org/1999/xlink" version="1.1"><path d="M0 245L16 242.2C32 239.3 64 233.7 96 229C128 224.3 160 220.7 192 215.5C224 210.3 256 203.7 288 191.7C320 179.7 352 162.3 384 159.7C416 157 448 169 480 184.3C512 199.7 544 218.3 576 217.2C608 216 640 195 672 180.2C704 165.3 736 156.7 768 152.7C800 148.7 832 149.3 864 152.8C896 156.3 928 162.7 944 165.8L960 169L960 0L944 0C928 0 896 0 864 0C832 0 800 0 768 0C736 0 704 0 672 0C640 0 608 0 576 0C544 0 512 0 480 0C448 0 416 0 384 0C352 0 320 0 288 0C256 0 224 0 192 0C160 0 128 0 96 0C64 0 32 0 16 0L0 0Z" fill="#ffffff"></path><path d="M0 126L16 125.3C32 124.7 64 123.3 96 120.5C128 117.7 160 113.3 192 112.2C224 111 256 113 288 131.2C320 149.3 352 183.7 384 183.2C416 182.7 448 147.3 480 142.7C512 138 544 164 576 175.3C608 186.7 640 183.3 672 186C704 188.7 736 197.3 768 198.7C800 200 832 194 864 183.3C896 172.7 928 157.3 944 149.7L960 142L960 0L944 0C928 0 896 0 864 0C832 0 800 0 768 0C736 0 704 0 672 0C640 0 608 0 576 0C544 0 512 0 480 0C448 0 416 0 384 0C352 0 320 0 288 0C256 0 224 0 192 0C160 0 128 0 96 0C64 0 32 0 16 0L0 0Z" fill="#d6c8e0"></path><path d="M0 171L16 164C32 157 64 143 96 133.2C128 123.3 160 117.7 192 120.3C224 123 256 134 288 139.3C320 144.7 352 144.3 384 147.2C416 150 448 156 480 148.8C512 141.7 544 121.3 576 116C608 110.7 640 120.3 672 132C704 143.7 736 157.3 768 153.3C800 149.3 832 127.7 864 120.8C896 114 928 122 944 126L960 130L960 0L944 0C928 0 896 0 864 0C832 0 800 0 768 0C736 0 704 0 672 0C640 0 608 0 576 0C544 0 512 0 480 0C448 0 416 0 384 0C352 0 320 0 288 0C256 0 224 0 192 0C160 0 128 0 96 0C64 0 32 0 16 0L0 0Z" fill="#ad93c2"></path><path d="M0 68L16 66C32 64 64 60 96 64.7C128 69.3 160 82.7 192 89.3C224 96 256 96 288 99C320 102 352 108 384 107.8C416 107.7 448 101.3 480 92.2C512 83 544 71 576 76C608 81 640 103 672 109.3C704 115.7 736 106.3 768 107.5C800 108.7 832 120.3 864 119.2C896 118 928 104 944 97L960 90L960 0L944 0C928 0 896 0 864 0C832 0 800 0 768 0C736 0 704 0 672 0C640 0 608 0 576 0C544 0 512 0 480 0C448 0 416 0 384 0C352 0 320 0 288 0C256 0 224 0 192 0C160 0 128 0 96 0C64 0 32 0 16 0L0 0Z" fill="#8460a4"></path><path d="M0 34L16 41.2C32 48.3 64 62.7 96 62.3C128 62 160 47 192 39.8C224 32.7 256 33.3 288 40.3C320 47.3 352 60.7 384 58.7C416 56.7 448 39.3 480 31.2C512 23 544 24 576 32.3C608 40.7 640 56.3 672 65.8C704 75.3 736 78.7 768 79.8C800 81 832 80 864 80.5C896 81 928 83 944 84L960 85L960 0L944 0C928 0 896 0 864 0C832 0 800 0 768 0C736 0 704 0 672 0C640 0 608 0 576 0C544 0 512 0 480 0C448 0 416 0 384 0C352 0 320 0 288 0C256 0 224 0 192 0C160 0 128 0 96 0C64 0 32 0 16 0L0 0Z" fill="#5a2f86"></path></svg>