<svg id="visual" viewBox="0 0 960 540" width="960" height="540" xmlns="http://www.w3.org/2000/svg" xmlns:xlink="http://www.w3.org/1999/xlink" version="1.1"><path d="M0 395L14.5 389.2C29 383.3 58 371.7 87.2 361.7C116.3 351.7 145.7 343.3 174.8 335.3C204 327.3 233 319.7 262 329.7C291 339.7 320 367.3 349 370.3C378 373.3 407 351.7 436.2 343.7C465.3 335.7 494.7 341.3 523.8 346C553 350.7 582 354.3 611 362C640 369.7 669 381.3 698 373.8C727 366.3 756 339.7 785.2 337.3C814.3 335 843.7 357 872.8 358.2C902 359.3 931 339.7 945.5 329.8L960 320L960 541L945.5 541C931 541 902 541 872.8 541C843.7 541 814.3 541 785.2 541C756 541 727 541 698 541C669 541 640 541 611 541C582 541 553 541 523.8 541C494.7 541 465.3 541 436.2 541C407 541 378 541 349 541C320 541 291 541 262 541C233 541 204 541 174.8 541C145.7 541 116.3 541 87.2 541C58 541 29 541 14.5 541L0 541Z" fill="#000000"></path><path d="M0 452L14.5 444.3C29 436.7 58 421.3 87.2 407C116.3 392.7 145.7 379.3 174.8 378C204 376.7 233 387.3 262 388.8C291 390.3 320 382.7 349 378.8C378 375 407 375 436.2 372.2C465.3 369.3 494.7 363.7 523.8 375.8C553 388 582 418 611 425C640 432 669 416 698 415.3C727 414.7 756 429.3 785.2 435.3C814.3 441.3 843.7 438.7 872.8 433.8C902 429 931 422 945.5 418.5L960 415L960 541L945.5 541C931 541 902 541 872.8 541C843.7 541 814.3 541 785.2 541C756 541 727 541 698 541C669 541 640 541 611 541C582 541 553 541 523.8 541C494.7 541 465.3 541 436.2 541C407 541 378 541 349 541C320 541 291 541 262 541C233 541 204 541 174.8 541C145.7 541 116.3 541 87.2 541C58 541 29 541 14.5 541L0 541Z" fill="#5f3500"></path><path d="M0 470L14.5 468.8C29 467.7 58 465.3 87.2 464.5C116.3 463.7 145.7 464.3 174.8 463.2C204 462 233 459 262 451C291 443 320 430 349 433C378 436 407 455 436.2 453.2C465.3 451.3 494.7 428.7 523.8 428C553 427.3 582 448.7 611 458.7C640 468.7 669 467.3 698 468.5C727 469.7 756 473.3 785.2 476.8C814.3 480.3 843.7 483.7 872.8 476C902 468.3 931 449.7 945.5 440.3L960 431L960 541L945.5 541C931 541 902 541 872.8 541C843.7 541 814.3 541 785.2 541C756 541 727 541 698 541C669 541 640 541 611 541C582 541 553 541 523.8 541C494.7 541 465.3 541 436.2 541C407 541 378 541 349 541C320 541 291 541 262 541C233 541 204 541 174.8 541C145.7 541 116.3 541 87.2 541C58 541 29 541 14.5 541L0 541Z" fill="#aa7303"></path><path d="M0 466L14.5 469.8C29 473.7 58 481.3 87.2 484.7C116.3 488 145.7 487 174.8 484.3C204 481.7 233 477.3 262 471.8C291 466.3 320 459.7 349 464.8C378 470 407 487 436.2 492.5C465.3 498 494.7 492 523.8 494C553 496 582 506 611 505.2C640 504.3 669 492.7 698 491C727 489.3 756 497.7 785.2 498C814.3 498.3 843.7 490.7 872.8 487.3C902 484 931 485 945.5 485.5L960 486L960 541L945.5 541C931 541 902 541 872.8 541C843.7 541 814.3 541 785.2 541C756 541 727 541 698 541C669 541 640 541 611 541C582 541 553 541 523.8 541C494.7 541 465.3 541 436.2 541C407 541 378 541 349 541C320 541 291 541 262 541C233 541 204 541 174.8 541C145.7 541 116.3 541 87.2 541C58 541 29 541 14.5 541L0 541Z" fill="#fab80e"></path></svg>