<svg xmlns="http://www.w3.org/2000/svg" xmlns:xlink="http://www.w3.org/1999/xlink" viewBox="0 0 595.28 841.89"><defs><style>.cls-1{font-size:30px;font-family:WawaWritesWords-Regular, Wawa Writes Words;}.cls-1,.cls-2{fill:#1d1d1b;}.cls-3{fill:url(#Dégradé_sans_nom_76);}.cls-4{fill:url(#Dégradé_sans_nom_76-2);}.cls-5{fill:url(#Dégradé_sans_nom_76-3);}</style><linearGradient id="Dégradé_sans_nom_76" x1="101.92" y1="440.46" x2="452.28" y2="363.36" gradientUnits="userSpaceOnUse"><stop offset="0" stop-color="#e30613"/><stop offset="0.2" stop-color="#ea5b0c"/><stop offset="0.4" stop-color="#ffde00"/><stop offset="0.6" stop-color="#00983a"/><stop offset="0.8" stop-color="#27348b"/><stop offset="1" stop-color="#82368c"/></linearGradient><linearGradient id="Dégradé_sans_nom_76-2" x1="108.46" y1="470.15" x2="458.82" y2="393.05" xlink:href="#Dégradé_sans_nom_76"/><linearGradient id="Dégradé_sans_nom_76-3" x1="113" y1="490.8" x2="463.36" y2="413.69" xlink:href="#Dégradé_sans_nom_76"/></defs><g id="Interface"><text class="cls-1" transform="translate(190.93 798.37)">&quot;L’alpha et l’Oméga&quot;</text><path class="cls-2" d="M71.08,55.53A56.15,56.15,0,0,1,58.81,56L58,56h-.23l-.08,0-.35,0a5.35,5.35,0,0,0-.69,0c-.43,0-.82.16-.83.49l0,0a9,9,0,0,0,1,1.61,2.85,2.85,0,0,0,.33.31l0,0a.85.85,0,0,1,0,.15l0,.22.06.91.09,1.81c.23,4.83.23,9.67.23,14.31-.91,0-2.27-.77-2.72,0-1.37,3.09-3.18,3.09-5,3.09-.91,0,0-2.32-.91-1.54,0-2.32-.45-6.19-1.36-3.87-.91.77,0,3.87-1.36,4.64s-2.72-.77-4.09,0v3.09c-.91.78-2.72-.77-2.72,0-.91,2.32-.46,5.42-.46,8.51-.9,0-1.81.78-2.27-.77Q36.4,78.58,36,68.08l-.21-5.25-.1-2.63,0-1.31-.05-2.13q-.16-10.47-.34-20.94l20-.23,6.34-.05,5,0c6.69,0,13.36.16,20,.49,3.09.46.77,2.27-1.55,3.63.77-.45.77.91,1.55.46,0,1.36-1.55,3.63-4.65,4.08h2.32c.78.46,0,1.37,0,2.27-.77,0-1.54,0-1.54.46v1.81h3.09c-.77,0-1.55,0-1.55.46V51c-1.54.46-3.86-.45-5.41,0v1.37c1.55.45,3.87,0,5.41,0-.77.45-.77.9-.77,1.81-2.32.46-4.64-.91-7,.46h2.32C77.27,56.9,73.41,55.08,71.08,55.53Z"/><path class="cls-2" d="M540.32,73a55.71,55.71,0,0,1-.51-12.22l.05-1.58v-.47l0-.18a5.2,5.2,0,0,0,0-.68c0-.43-.17-.82-.51-.85l-.2,0a7.43,7.43,0,0,0-1.43.93,3.9,3.9,0,0,0-.29.29c.43.08-1.29.14-2.34.19-4.6.2-9.2.2-13.62.2,0-.9.77-2.27,0-2.72-3.06-1.36-3.06-3.18-3.06-5,0-.91,2.3,0,1.53-.91,2.3,0,6.13-.46,3.83-1.36-.76-.91-3.83,0-4.59-1.37s.76-2.72,0-4.08h-3.07c-.76-.91.77-2.73,0-2.73-2.29-.9-5.35-.45-8.42-.45,0-.91-.76-1.82.77-2.27L528.59,37l5-.21,2.52-.1,1.26,0,2.46,0L560,36.29q.13,10.17.25,20.35l.06,6.23,0,5.12c0,6.82-.14,13.62-.49,20.37-.45,3.06-2.27.76-3.63-1.53.46.76-.91.76-.45,1.53-1.37,0-3.63-1.53-4.09-4.6v2.3c-.45.77-1.36,0-2.27,0,0-.77,0-1.53-.45-1.53h-1.82v3.06c0-.76,0-1.53-.45-1.53h-1.82c-.45-1.53.45-3.83,0-5.36H543.5c-.46,1.53,0,3.83,0,5.36-.46-.77-.91-.77-1.82-.77-.45-2.29.91-4.59-.45-6.89v2.3C539,79.17,540.77,75.34,540.32,73Z"/><path class="cls-2" d="M55.38,735a55.12,55.12,0,0,1,.5,12.22l0,1.58v.39l0,.08v.18a3.87,3.87,0,0,0,0,.68c0,.43.17.82.51.85l.2,0a7.43,7.43,0,0,0,1.43-.93l.29-.29c-.43-.08,1.29-.14,2.34-.19,4.6-.2,9.2-.2,13.61-.2,0,.9-.76,2.27,0,2.72,3.07,1.36,3.07,3.18,3.07,5,0,.91-2.3,0-1.53.91-2.3,0-6.13.46-3.83,1.36.76.91,3.83,0,4.59,1.37s-.76,2.72,0,4.08h3.06c.77.91-.76,2.73,0,2.73,2.3.9,5.36.45,8.42.45,0,.91.77,1.82-.76,2.27L67.11,771l-5,.21-2.52.09-1.27.05-2.45,0-20.13.34-.24-20.35-.06-6.23,0-5.12c0-6.82.14-13.62.49-20.37.45-3.06,2.27-.76,3.63,1.53-.46-.76.91-.76.45-1.53,1.36,0,3.63,1.53,4.09,4.6V722c.45-.77,1.36,0,2.27,0,0,.77,0,1.53.45,1.53h1.82v-3.06c0,.76,0,1.53.45,1.53h1.82c.45,1.53-.46,3.83,0,5.36H52.2c.46-1.53,0-3.83,0-5.36.46.77.91.77,1.82.77.45,2.29-.91,4.59.45,6.89v-2.3C56.74,728.85,54.92,732.68,55.38,735Z"/><path class="cls-2" d="M524.44,752.05a55.1,55.1,0,0,1,12.15-.51l.79,0a.84.84,0,0,1,.21,0l.34,0a5.35,5.35,0,0,0,.69,0c.43,0,.81-.16.82-.48l0,0a8,8,0,0,0-1-1.61,2.9,2.9,0,0,0-.32-.31l0,0s0,0,0,0v-.23l-.06-.89-.1-1.8c-.22-4.78-.22-9.57-.22-14.16.9,0,2.27.76,2.72,0,1.36-3.06,3.18-3.06,5-3.06.91,0,0,2.29.91,1.53,0,2.29.46,6.12,1.36,3.82.91-.76,0-3.82,1.37-4.59s2.72.77,4.08,0v-3.06c.91-.77,2.73.76,2.73,0,.91-2.3.45-5.36.45-8.42.91,0,1.82-.77,2.27.76q.4,10.28.81,20.67l.21,5.2.1,2.6,0,1.3.05,2.21q.16,10.37.34,20.74l-19.78.22-6.39.06h-5c-6.62,0-13.22-.16-19.77-.49-3.06-.45-.77-2.27,1.53-3.63-.76.45-.76-.91-1.53-.45,0-1.37,1.53-3.64,4.59-4.09h-2.29c-.77-.45,0-1.36,0-2.27.76,0,1.53,0,1.53-.45v-1.82H509.9c.76,0,1.53,0,1.53-.45v-1.82c1.53-.45,3.83.45,5.36,0v-1.36c-1.53-.46-3.83,0-5.36,0,.76-.46.76-.91.76-1.82,2.3-.45,4.6.91,6.89-.45h-2.29C518.32,750.69,522.15,752.5,524.44,752.05Z"/><path class="cls-3" d="M168.64,365.68a4.84,4.84,0,0,1,1.9-.95,15.8,15.8,0,0,1,3.33,1.27q7.78,3.81,9.84,9.52,2.39,6.18,9.68,43,2.54,12.38,3.18,13,.47.63,7.13,1a43.82,43.82,0,0,1,6.27.64,5,5,0,0,1,2.46,1.9,9,9,0,0,1,1.91,6c0,2.64-.59,4.44-1.75,5.39a7.27,7.27,0,0,1-3.09,1.27c-1.43.32-3.07.61-4.92.88a25.36,25.36,0,0,0-3.73.71,2.43,2.43,0,0,0-.64.16,3.34,3.34,0,0,0-1,.32,1.59,1.59,0,0,0-.47.71,3.87,3.87,0,0,0-.24,1.51c0,1.37.32,4.92.95,10.63q.79,7.14.79,10,0,4.29-1.11,6a4.14,4.14,0,0,1-3.8,1.75q-4.61,0-9.68-5.08l-2.86-2.85-.63-9.68q-.8-9.53-1.59-10.32a1.7,1.7,0,0,0-.95-.16q-5.24,0-25.07,6l-10.16,3-3.17,6.82q-4.44,9.69-8.89,9.68a11.28,11.28,0,0,1-4.76-1.43,15.67,15.67,0,0,1-5.23-4,8.34,8.34,0,0,1-1.59-5.24,31.41,31.41,0,0,1,1-6.66q2.39-9.84,11-34,4.6-13.17,6.51-16.26a5.73,5.73,0,0,1,5.07-3.1c.85,0,1.72-.69,2.62-2.06s2.94-5.29,6.11-11.74Q165.94,367.59,168.64,365.68Zm6,44.59q-2.22-12.54-2.54-12.86l-2.54,4q-2.39,4.29-10.39,20.71t-7.7,16.42q.63,0,13-2.78t12.7-2.93c.21-.11.31-.8.31-2.07Q177.52,425.66,174.67,410.27Z"/><path class="cls-4" d="M286.53,376.63a49,49,0,0,1,7-.48q9.67,0,13,2.06a2.65,2.65,0,0,1,1.27,2.07q0,2.06-13.17,23.32l-6,9.68,1.75,3.33q2.22,4.13,7.14,11.59l5.55,8.41,1.43-2.07q2.87-3.81,6-14.28c1.59-5.18,2.43-7.88,2.54-8.09.42-1.06,1.9-2.11,4.44-3.17a18,18,0,0,1,6.82-1.59,5.4,5.4,0,0,1,1.59.16c2.23.74,3.33,2.59,3.33,5.55q0,5.4-4.28,15.23a56.09,56.09,0,0,1-9.2,14.76l-3,3.33,3.18,2.86a106,106,0,0,0,10.47,8.09,110,110,0,0,1,9.52,7.3c1.58,1.48,2.38,2.86,2.38,4.13a5.23,5.23,0,0,1-.48,2.06,7.58,7.58,0,0,1-3.72,3.65,12.89,12.89,0,0,1-5.95,1.43,13.26,13.26,0,0,1-4.93-.95q-3.33-1.27-11.1-6.67a111.64,111.64,0,0,1-12.38-9.68l-2.7-2.38L291.29,458A65.1,65.1,0,0,1,273,460.57q-12.21,0-16.34-4-3.49-3.18-3.49-10a18.1,18.1,0,0,1,.79-5.08q.17-.47,7.38-12.37t7.22-12.85a34.71,34.71,0,0,0-1.43-6.35,44.77,44.77,0,0,1-2.38-12.85,14.78,14.78,0,0,1,.95-5.72,21.66,21.66,0,0,1,7.86-9.75A27.87,27.87,0,0,1,286.53,376.63Zm.48,70.45c.1,0,.16-.11.16-.32q0-.94-2.54-4.68t-5.08-6.9L277,431.85q-.31-.17-2.94,4.2A34.43,34.43,0,0,0,271,442a5.15,5.15,0,0,0-.32,1.43q0,4,9.84,4A34.59,34.59,0,0,0,287,447.08Zm-.16-58.23c0-.74-.69-.58-2.06.47a5.6,5.6,0,0,0-2.54,4.6c0,.53.16.8.47.8s1.09-.88,2.3-2.62S286.85,389.27,286.85,388.85Z"/><path class="cls-5" d="M374.16,474.62q8.28,0,16.56-.07c5.51-.05,12.37.86,17.73-.72a7.69,7.69,0,0,0,5.28-9.29v-.05l-.77,5.82c6.81-9,.89-21.08-6.78-27.23-8.61-6.9-20-13.44-20.48-25.84-1-22.78,17.68-42.95,40.74-40.32,21.75,2.48,36.66,21.06,31.26,43-2.89,11.74-12.47,15.88-21.29,22.79-9.89,7.76-13.5,17.29-7.65,28.83a7.5,7.5,0,0,0,6.52,3.74h32c9.72,0,9.74-15.11,0-15.11h-32l6.53,3.74c-4.27-8.42,14.79-16.28,19.95-21.2,6.47-6.17,10.13-14.84,11.42-23.57,2.75-18.6-4.29-38-20.28-48.5-15.18-9.94-36.73-12.46-53.15-4.18-17.63,8.89-28.82,29.27-29.17,48.7-.22,12,5.31,21.39,13.54,29.74,4.18,4.24,9.95,6.76,13.94,11,1.95,2.09,2.61,3.7,2.3,6.17-.28,2.23-1.9,3.76-1.19,6.44l5.27-9.29c1.19-.35,1.25.17-.25-.07a24.11,24.11,0,0,0-4,.12c-3.64.08-7.28.11-10.93.14q-7.54.06-15.11.06c-9.72,0-9.74,15.12,0,15.11Z"/><path class="cls-2" d="M121.22,444.32l-4-3.11a1,1,0,0,0-.68-.12c-.11,0-.38.12-.2.25l4.06,3.11a.88.88,0,0,0,.67.12c.12,0,.39-.12.2-.25Z"/><path class="cls-2" d="M120.22,458.82a1.44,1.44,0,0,0-2,.71c-.29,1,1,1.9,1.72,2.37a2.93,2.93,0,0,0,2.9.4,1.91,1.91,0,0,0,.91-2.29,3.34,3.34,0,0,0-2.25-2c-.87-.28-2.21-.26-2.72.65s.31,1.54,1.08,1.69a2.62,2.62,0,0,0,2.51-1A8,8,0,0,0,124,452.3a5.27,5.27,0,0,0-4.66-3.92,4.2,4.2,0,0,0-4.57,2.94c-.61,2.35,1.39,3.89,3.29,4.74,2.14.95,5.33,1.57,7-.63a2.92,2.92,0,0,0-.13-3.42,7.94,7.94,0,0,0-3.4-2.35.92.92,0,0,0-.69,0c-.09,0-.38.18-.16.28,1.51.69,3.28,1.52,3.78,3.27a2.66,2.66,0,0,1-2.22,3.32c-1.64.27-3.7-.7-5-1.65a3.29,3.29,0,0,1-1.34-3.85,3.21,3.21,0,0,1,3.49-2.19,4.68,4.68,0,0,1,3.47,3,6.93,6.93,0,0,1-.08,5c-.27.73-2.14,4.52-3.1,2.72-.39-.75.38-1.32,1.09-1.18a3.12,3.12,0,0,1,1.12.6,2.17,2.17,0,0,1,.84,2.28c-.18.56-.58,1-1.24.84a3.71,3.71,0,0,1-1.17-.71,3.57,3.57,0,0,1-1-1,1.15,1.15,0,0,1-.16-.62.74.74,0,0,1,.14-.39c.2-.1.23-.18.1-.22a1,1,0,0,0,.69,0c.1,0,.36-.17.16-.29Z"/><path class="cls-2" d="M122.67,447.24l3.24.8c.15,0,.46.12.6,0s0-.23-.16-.28l-2.23-1.06c-.34-.16-.7-.3-1-.49s-.35-.41-.12-.64a2.55,2.55,0,0,1,.84-.42,11.4,11.4,0,0,1,1.13-.36,11.13,11.13,0,0,1,2.23-.34c.14,0,.36-.07.22-.23a.91.91,0,0,0-.66-.2,12.69,12.69,0,0,0-2.6.41,11.47,11.47,0,0,0-1.29.43,2,2,0,0,0-.88.52c-.52.74.8,1.2,1.26,1.41l2.56,1.22.45-.29-3.23-.8c-.16,0-.52-.14-.63,0s.2.28.29.31Z"/><path class="cls-2" d="M129.2,439.35a5.15,5.15,0,0,0-3.45-2.94,7.35,7.35,0,0,1-1.39-.31c-.56-.27-.36-.84,0-1.16a7.47,7.47,0,0,1,1.68-.94c.93-.41,2.53-1.1,3.35-.14a1.34,1.34,0,0,1,.31.71.82.82,0,0,1-.05.38c0,.07-.17.23-.17.28s-.05,0,0,0,.11.05,0,0l-.17-.07a.49.49,0,0,1-.25-.5c0-.23-1-.17-1,.15,0,.52.49.78.93.83a1.63,1.63,0,0,0,1.51-.51,1.28,1.28,0,0,0-.24-1.58,2.45,2.45,0,0,0-2-.58,9.83,9.83,0,0,0-4.56,1.7c-.45.31-1.06.88-.64,1.46s1,.49,1.52.57a4.76,4.76,0,0,1,3.54,2.8c.13.3,1.08.06,1-.15Z"/><path class="cls-2" d="M116.28,467.65c1.61.14,3.21.25,4.82.32.12,0,.39,0,.4-.14s-.35-.25-.45-.27a9.31,9.31,0,0,1-3.51-1.73l-.05.28,3-.71c.47-.11.94-.21,1.41-.34a1.92,1.92,0,0,0,1-.52,1.48,1.48,0,0,0-.16-1.86,4.27,4.27,0,0,0-2.22-1.11c-.14,0-.52-.14-.63,0s.19.28.3.31a2.72,2.72,0,0,1,1.77,1,1.13,1.13,0,0,1-.28,1.62,3.51,3.51,0,0,1-1,.3l-1.27.3-2.61.61c-.19.05-.21.16-.06.28a11,11,0,0,0,4.18,2l0-.41c-1.61-.07-3.22-.18-4.82-.32-.12,0-.43,0-.39.17s.44.24.57.26Z"/></g></svg>